<svg width="15" height="14" viewBox="0 0 15 14" fill="none" xmlns="http://www.w3.org/2000/svg">
<path d="M14.5327 1.69692C14.7158 1.86778 14.7158 2.14479 14.5327 2.31564L13.555 3.22816L11.68 1.47816L12.6577 0.565641C12.8408 0.394786 13.1376 0.394786 13.3207 0.565641L14.5327 1.69692Z" fill="#8A8A8A"/>
<path d="M12.8921 3.84688L11.0171 2.09688L4.62995 8.05825C4.57849 8.10628 4.53972 8.16483 4.51671 8.22926L3.76243 10.3412C3.70136 10.5122 3.87567 10.6749 4.0589 10.6179L6.32172 9.91394C6.39076 9.89246 6.45349 9.85628 6.50495 9.80825L12.8921 3.84688Z" fill="#8A8A8A"/>
<path fill-rule="evenodd" clip-rule="evenodd" d="M0.9375 11.8125C0.9375 12.5374 1.5671 13.125 2.34375 13.125H12.6562C13.4329 13.125 14.0625 12.5374 14.0625 11.8125V6.5625C14.0625 6.32088 13.8526 6.125 13.5938 6.125C13.3349 6.125 13.125 6.32088 13.125 6.5625V11.8125C13.125 12.0541 12.9151 12.25 12.6562 12.25H2.34375C2.08487 12.25 1.875 12.0541 1.875 11.8125V2.1875C1.875 1.94588 2.08487 1.75 2.34375 1.75H8.4375C8.69638 1.75 8.90625 1.55412 8.90625 1.3125C8.90625 1.07088 8.69638 0.875 8.4375 0.875H2.34375C1.5671 0.875 0.9375 1.46263 0.9375 2.1875V11.8125Z" fill="#8A8A8A"/>
</svg>
